<?xml version="1.0" encoding="utf-8"?>
<!-- Generator: Adobe Illustrator 28.2.0, SVG Export Plug-In . SVG Version: 6.00 Build 0)  -->
<svg version="1.1" id="Layer_1" xmlns="http://www.w3.org/2000/svg" xmlns:xlink="http://www.w3.org/1999/xlink" x="0px" y="0px"
	 viewBox="0 0 4531.2 157.1" style="enable-background:new 0 0 4531.2 157.1;" xml:space="preserve">
<style type="text/css">
	.st0{fill:#0458A0;}
	.st1{fill:#FAA71B;}
	.st2{fill:#F26122;}
	.st3{fill:#EA1D25;}
	.st4{fill:#F69E1E;}
	.st5{clip-path:url(#SVGID_00000164484509203940309940000007670075001977725626_);}
	.st6{fill:#6A6B6B;}
	.st7{fill:#67696D;}
	.st8{fill:#2A813F;}
	.st9{fill:#E86724;}
	.st10{fill-rule:evenodd;clip-rule:evenodd;fill:#010101;}
	.st11{fill:#603494;}
	.st12{fill:#FFFFFF;}
	.st13{fill:#26B9EC;}
	.st14{fill:#23356B;}
	.st15{fill:#00D1C1;}
	.st16{fill:#014751;}
	.st17{fill:#AFE137;}
</style>
<g id="g4158">
	<polygon id="polygon9" class="st0" points="183.5,143.2 149.2,143.2 170.6,10.4 205,10.4 	"/>
	<path id="path11" class="st0" d="M307.9,13.7C298,9.9,287.6,8,277.1,8.1c-33.9,0-57.7,18-57.9,43.9c-0.3,19.1,17.1,29.6,30.1,36
		c13.3,6.5,17.8,10.7,17.8,16.5c-0.1,8.9-10.7,13-20.6,13c-13.7,0-21-2.1-32.2-7l-4.5-2.2l-4.8,29.8c8,3.7,22.9,6.9,38.3,7
		c36,0,59.5-17.8,59.7-45.3c0.2-15.1-9.1-26.7-28.8-36.2c-12-6.1-19.4-10.2-19.4-16.4c0.2-5.6,6.2-11.4,19.8-11.4
		c8.8-0.3,17.5,1.5,25.5,5.1l3.1,1.4L307.9,13.7L307.9,13.7z"/>
	<path id="path13" class="st0" d="M353.5,96.1c2.8-7.7,13.7-37.1,13.7-37.1c-0.2,0.3,2.8-7.7,4.5-12.7l2.4,11.4
		c0,0,6.5,31.8,7.9,38.4L353.5,96.1z M395.8,10.4h-26.6c-8.2,0-14.4,2.4-17.9,11l-50.9,121.7h36l7.2-20h44.1
		c1,4.7,4.1,19.9,4.1,19.9h31.8L395.8,10.4z"/>
	<path id="path15" class="st0" d="M120.6,10.4L87,100.9l-3.6-18.4C77.1,61.4,57.6,38.4,35.9,27l30.8,116h36.2l53.9-132.6H120.6z"/>
	<path id="path17" class="st1" d="M55.8,10.4H0.5L0,13.1c43.1,11.1,71.6,37.6,83.3,69.5l-12.1-61C69.3,13.2,63.2,10.7,55.8,10.4z"/>
</g>
<g id="layer1">
	<g id="g13">
		<rect id="rect19" x="627.6" y="23.7" class="st2" width="58.8" height="105.6"/>
		<path class="st3" d="M631.3,76.5c0-20.6,9.4-40,25.5-52.8c-29.1-23-71.4-17.9-94.4,11.2c-23,29.1-17.9,71.4,11.2,94.5
			c24.4,19.3,58.8,19.3,83.2,0C640.7,116.6,631.3,97.1,631.3,76.5z"/>
		<path id="path22" class="st4" d="M765.7,76.5c0.1,37-29.9,67.2-67,67.2c-15,0-29.7-5-41.6-14.3c29.2-23,34.1-65.4,11.1-94.6
			c-3.3-4.1-6.9-7.8-11.1-11.1c29.1-23,71.3-17.9,94.2,11.3C760.6,46.9,765.7,61.5,765.7,76.5z"/>
	</g>
</g>
<g id="layer1-2">
	<g id="g22">
		<g>
			<g>
				<g>
					<g>
						<g>
							<defs>
								<rect id="SVGID_1_" x="858.4" y="-33.2" width="439.3" height="219.6"/>
							</defs>
							<clipPath id="SVGID_00000124846943193289704270000014599160121061305784_">
								<use xlink:href="#SVGID_1_"  style="overflow:visible;"/>
							</clipPath>
							<g style="clip-path:url(#SVGID_00000124846943193289704270000014599160121061305784_);">
								<g id="g24">
									<g id="g30">
										<path id="path32" class="st6" d="M893,124.3h2.8l-2.6,10.9c-0.4,1.6-0.4,2.8,0.3,3.7c0.6,0.9,1.5,1.2,3,1.2
											c1.3,0,2.6-0.4,3.5-1.2c1.1-1,1.7-2.3,2-3.6l2.6-10.9h2.9l-2.6,11.2c-0.4,2.1-1.5,4-3.1,5.5c-1.7,1.2-3.8,1.9-5.9,1.8
											c-2.4,0-4-0.6-5-1.8c-1-1.1-1.1-3-0.4-5.5L893,124.3z"/>
									</g>
									<g id="g34">
										<path id="path36" class="st6" d="M907.1,142.3l4.5-18.7l8.5,11c0.3,0.4,0.4,0.6,0.7,1s0.4,0.8,0.7,1.2l3-12.5h2.6
											l-4.5,18.7l-8.7-11.2c-0.3-0.4-0.4-0.6-0.6-1c-0.2-0.4-0.4-0.7-0.5-1.1l-3,12.5H907.1z"/>
									</g>
									<g id="g38">
										<path id="path40" class="st6" d="M926.8,142.3l4.3-18h2.8l-4.3,18H926.8z"/>
									</g>
									<g id="g42">
										<path id="path44" class="st6" d="M933.7,142.3l4.3-18h9.8l-0.6,2.5h-6.9l-1.1,4.5h6.9l-0.6,2.6h-6.9l-2.1,8.4L933.7,142.3
											L933.7,142.3z"/>
									</g>
									<g id="g46">
										<path id="path48" class="st6" d="M946.6,142.3l4.3-18h2.8l-4.3,18H946.6z"/>
									</g>
									<g id="g50">
										<path id="path52" class="st6" d="M953.6,142.3l4.3-18h9.8l-0.6,2.5h-6.9l-1.1,4.5h6.9l-0.6,2.6h-6.9l-1.4,5.8h6.9
											l-0.6,2.6L953.6,142.3L953.6,142.3z"/>
									</g>
									<g id="g54">
										<path id="path56" class="st6" d="M970.2,139.7h2.4c1.1,0,2-0.1,3-0.3c0.7-0.2,1.3-0.4,1.9-0.9c0.8-0.6,1.5-1.3,2-2.2
											c0.5-1,1-1.9,1.1-3c0.3-1,0.4-2,0.3-3c-0.1-0.8-0.4-1.6-1-2.2c-0.4-0.4-1-0.7-1.6-0.9c-1.1-0.3-2.1-0.4-3.2-0.3h-2
											L970.2,139.7z M966.7,142.3l4.3-18h3.9c1.8-0.1,3.5,0.1,5.2,0.4c0.9,0.3,1.7,0.7,2.4,1.3c0.9,0.8,1.4,1.9,1.6,3.1
											c0.2,1.4,0.1,2.9-0.3,4.3c-0.4,1.5-1,2.9-1.8,4.2c-0.8,1.2-1.8,2.3-3.1,3.1c-0.9,0.6-1.8,1.1-2.9,1.3
											c-1.5,0.3-3.1,0.4-4.7,0.4L966.7,142.3L966.7,142.3z"/>
									</g>
									<g id="g58">
										<path id="path60" class="st6" d="M997.7,131.9h0.7c1.1,0.1,2.3-0.1,3.3-0.5c0.7-0.4,1.1-1.1,1.2-1.8c0.3-1,0.1-1.7-0.4-2
											c-0.9-0.5-1.9-0.7-3-0.6h-0.7L997.7,131.9z M996.9,134.2l-1.9,8.1h-2.6l4.3-18h4.3c1,0,1.8,0,2.8,0.3
											c0.5,0.1,1,0.4,1.4,0.7c0.4,0.4,0.8,1.1,0.9,1.7c0.2,0.8,0.1,1.6-0.1,2.4c-0.2,0.9-0.5,1.7-1.1,2.4
											c-0.4,0.7-1.1,1.2-1.7,1.7c-0.5,0.4-1.1,0.5-1.8,0.7c-1,0.2-1.9,0.3-2.9,0.2L996.9,134.2L996.9,134.2z"/>
									</g>
									<g id="g62">
										<path id="path64" class="st6" d="M1009.4,135.3h4.9l-0.8-4.1c0-0.3-0.1-0.5-0.1-0.9c0-0.4-0.1-0.7-0.1-1.1
											c-0.2,0.4-0.4,0.8-0.6,1.1c-0.3,0.4-0.4,0.6-0.5,1L1009.4,135.3z M1015.5,142.3l-0.9-4.7h-6.9l-3.2,4.7h-2.9l13-18.7
											l4,18.7H1015.5z"/>
									</g>
									<g id="g66">
										<path id="path68" class="st6" d="M1022.6,142.3l1.9-8.3l-3.6-9.8h3l2.2,6.2c0,0.2,0.1,0.4,0.2,0.6
											c0.1,0.3,0.2,0.5,0.2,0.8c0.2-0.3,0.4-0.5,0.5-0.8c0.2-0.3,0.4-0.5,0.5-0.7l5.2-6.1h2.8l-8.4,9.8l-2,8.3H1022.6z"/>
									</g>
									<g id="g70">
										<path id="path72" class="st6" d="M1049.9,133.4c0-0.2,0.1-0.5,0.1-1.1c0-0.6,0.1-1,0.2-1.3c-0.2,0.4-0.4,0.8-0.6,1.2
											c-0.3,0.4-0.5,0.9-0.8,1.2l-6.9,9.6l-2.3-9.8c-0.1-0.4-0.2-0.8-0.3-1.1s-0.1-0.8-0.1-1.1c-0.1,0.4-0.3,0.8-0.4,1.2
											c-0.2,0.4-0.4,0.9-0.5,1.3l-4,8.8h-2.6l8.6-18.7l2.5,11.3c0,0.2,0.1,0.4,0.2,0.9c0.1,0.4,0.2,1,0.3,1.6
											c0.3-0.5,0.7-1.1,1.2-1.9c0.2-0.2,0.3-0.4,0.4-0.5l7.7-11.3l-0.3,18.7h-2.6L1049.9,133.4z"/>
									</g>
									<g id="g74">
										<path id="path76" class="st6" d="M1054.7,142.3l4.3-18h9.8l-0.6,2.5h-6.9l-1.1,4.5h6.9l-0.6,2.6h-6.9l-1.4,5.8h6.9
											l-0.6,2.6L1054.7,142.3z"/>
									</g>
									<g id="g78">
										<path id="path80" class="st6" d="M1067.7,142.3l4.5-18.7l8.5,11c0.3,0.4,0.4,0.6,0.7,1s0.4,0.8,0.7,1.2l3-12.5h2.6
											l-4.5,18.7l-8.7-11.2c-0.4-0.6-0.9-1.3-1.2-2l-3,12.5H1067.7z"/>
									</g>
									<g id="g82">
										<path id="path84" class="st6" d="M1096.8,126.9l-3.7,15.5h-2.8l3.7-15.5h-4.7l0.6-2.5h12.1l-0.6,2.5H1096.8z"/>
									</g>
									<g id="g86">
										<path id="path88" class="st6" d="M1099.8,138.7l2.6-1.1c0,0.7,0.3,1.3,0.7,1.8c0.6,0.4,1.3,0.7,2,0.6
											c1.6,0.1,3.1-1.1,3.4-2.6c0.3-1.1-0.4-2-1.9-2.8l-0.5-0.3c-1.2-0.6-2.4-1.5-3.3-2.6c-0.4-0.9-0.5-1.9-0.3-2.9
											c0.4-1.4,1.1-2.7,2.3-3.6c1.2-0.9,2.6-1.4,4.1-1.4c1.1-0.1,2.1,0.2,3.1,0.8c0.7,0.5,1.2,1.3,1.3,2.2l-2.6,1.2
											c-0.2-0.5-0.4-1-0.9-1.2c-0.4-0.3-0.9-0.4-1.3-0.4c-0.7,0-1.4,0.2-2,0.6c-0.5,0.4-0.9,1-1.1,1.7c-0.3,1.1,0.5,2.1,2.3,3
											l0.4,0.2c1.2,0.5,2.2,1.3,3,2.4c0.4,0.9,0.6,1.9,0.3,2.9c-0.4,1.6-1.2,3.1-2.6,4c-1.3,1.1-2.9,1.6-4.6,1.5
											c-1.2,0.1-2.5-0.3-3.4-1.1C1100,141,1099.6,139.9,1099.8,138.7"/>
									</g>
									<g id="g90">
										<path id="path92" class="st6" d="M1120.8,142.3l4.3-18h2.8l-4.3,18H1120.8z"/>
									</g>
									<g id="g94">
										<path id="path96" class="st6" d="M1127.8,142.3l4.5-18.7l8.5,11c0.3,0.4,0.4,0.6,0.7,1s0.4,0.8,0.7,1.2l3-12.5h2.6
											l-4.5,18.7l-8.7-11.2c-0.3-0.4-0.4-0.6-0.6-1c-0.2-0.4-0.4-0.7-0.5-1.1l-3,12.5H1127.8z"/>
									</g>
									<g id="g98">
										<path id="path100" class="st6" d="M1156.9,126.9l-3.7,15.5h-2.9l3.7-15.5h-4.6l0.6-2.5h12.1l-0.6,2.5H1156.9z"/>
									</g>
									<g id="g102">
										<path id="path104" class="st6" d="M1159.9,142.3l4.3-18h9.8l-0.6,2.5h-6.9l-1.1,4.5h6.9l-0.6,2.6h-6.9l-1.4,5.8h6.9
											l-0.6,2.6L1159.9,142.3z"/>
									</g>
									<g id="g106">
										<path id="path108" class="st6" d="M1178.4,132h0.5c1.1,0.1,2.1-0.1,3.2-0.5c0.6-0.4,1.1-1.1,1.2-1.9
											c0.3-1,0.2-1.7-0.3-2.1c-0.4-0.4-1.4-0.6-2.8-0.6h-0.5L1178.4,132z M1177.6,134.2l-1.9,8.1h-2.6l4.3-18h4
											c0.9,0,1.8,0.1,2.6,0.3c0.5,0.1,1.1,0.4,1.5,0.8c0.4,0.4,0.8,1.1,0.9,1.7c0.1,0.8,0.1,1.5-0.1,2.3
											c-0.3,1.3-0.9,2.5-1.8,3.4c-1,0.9-2.1,1.3-3.3,1.5l4,8.2h-3.3l-3.9-8.1L1177.6,134.2z"/>
									</g>
									<g id="g110">
										<path id="path112" class="st6" d="M1186.8,142.3l4.3-18h9.8l-0.6,2.5h-6.9l-1.1,4.5h6.9l-0.6,2.6h-6.9l-2,8.4
											L1186.8,142.3L1186.8,142.3z"/>
									</g>
									<g id="g114">
										<path id="path116" class="st6" d="M1204.2,135.3h4.9l-0.8-4.1c0-0.3-0.1-0.5-0.1-0.9c0-0.4-0.1-0.7-0.1-1.1
											c-0.2,0.4-0.4,0.8-0.6,1.1c-0.3,0.4-0.4,0.6-0.5,1L1204.2,135.3z M1210.3,142.3l-0.9-4.7h-6.9l-3.2,4.7h-3l13-18.7l4,18.7
											H1210.3z"/>
									</g>
									<g id="g118">
										<path id="path120" class="st6" d="M1232,128.7c-0.6-0.7-1.3-1.2-2.2-1.6c-0.9-0.4-1.8-0.5-2.7-0.5c-1.8,0-3.7,0.7-5.1,1.9
											c-1.5,1.2-2.6,3-3,4.9c-0.5,1.6-0.3,3.3,0.6,4.8c0.9,1.3,2.4,2,4,1.9c1.1,0,2.1-0.2,3.1-0.5c1.1-0.4,2.1-1,3.1-1.7
											l-0.8,3.3c-1.8,1.1-3.8,1.7-5.8,1.7c-1.2,0-2.4-0.2-3.5-0.7c-1-0.4-1.8-1.1-2.6-2s-1.1-1.9-1.2-3.1
											c-0.2-1.2-0.1-2.6,0.2-3.7c0.4-1.3,0.9-2.6,1.6-3.7c0.7-1.1,1.7-2.2,2.7-3.1c1.1-0.9,2.2-1.5,3.5-2
											c1.2-0.4,2.6-0.7,3.8-0.7c1,0,1.9,0.2,2.8,0.4c0.9,0.4,1.7,0.8,2.4,1.4L1232,128.7z"/>
									</g>
									<g id="g122">
										<path id="path124" class="st6" d="M1232.3,142.3l4.3-18h9.9l-0.6,2.5h-6.9l-1.1,4.5h6.9l-0.6,2.6h-6.9l-1.4,5.8h6.9
											l-0.6,2.6L1232.3,142.3z"/>
									</g>
									<g id="g126">
										<path id="path128" class="st7" d="M1180.2,108.6h-19.6l27.3-98.5h19.6L1180.2,108.6z"/>
									</g>
									<g id="g130">
										<path id="path132" class="st7" d="M1170.1,13.3c-1.3-1.8-3.4-2.8-6.3-2.8h-107.8l-5.4,19.3h98.1l-5.7,20.6h-98.1
											l-16.3,58.8h19.6l10.9-39.4h88.2c2.8,0,5.5-1.1,7.7-2.8c2.4-1.8,4-4.2,4.7-7l10.9-39.4
											C1171.6,17.5,1171.4,15.1,1170.1,13.3"/>
									</g>
									<g id="g134">
										<path id="path136" class="st7" d="M1017.2,102.5c-1.1,3.9-4.7,6.6-8.7,6.6H907.3c-2.7,0-4.8-1-6.2-2.8
											c-1.3-1.8-1.7-4.2-0.9-6.9L925,10.5h19.6l-22.1,79.3h78.5l22.1-79.3h19.6L1017.2,102.5z"/>
									</g>
									<g id="g138">
										<path id="path140" class="st8" d="M1241.4,10.3l24.8,49.3L1214,109L1241.4,10.3z"/>
									</g>
									<g id="g142">
										<path id="path144" class="st9" d="M1224,10.3l24.8,49.4l-52.2,49.3L1224,10.3z"/>
									</g>
								</g>
							</g>
						</g>
					</g>
				</g>
			</g>
		</g>
	</g>
</g>
<g>
	<path class="st10" d="M1393.6,55.5l67-47.5l67.3,47.5H1393.6z M1521.1,80.3c11.4,1.4,20.1,11.1,20.1,22.7v19.4
		c0,12.6-10.2,22.8-22.8,22.8c-12.6,0-22.8-10.2-22.8-22.8V103c0-11.5,8.6-21.3,20.1-22.6V67.7c0-1.5,1.2-2.7,2.7-2.7
		c1.5,0,2.7,1.2,2.7,2.7l0,0L1521.1,80.3L1521.1,80.3z M1530.8,90.6c-6.8-6.8-17.9-6.8-24.6,0c-3.3,3.3-5.1,7.7-5.1,12.3v19.4
		c0,9.6,7.8,17.4,17.4,17.4c9.6,0,17.4-7.8,17.4-17.4v-19.4C1535.9,98.4,1534,93.9,1530.8,90.6L1530.8,90.6z M1518.3,98L1518.3,98
		c2.4,0,4.3,1.9,4.3,4.3v4.5c-0.1,2.4-1.9,4.3-4.3,4.3l0,0c-2.4,0-4.4-1.9-4.4-4.3v-4.5C1513.9,99.8,1515.8,97.9,1518.3,98
		C1518.2,97.9,1518.3,97.9,1518.3,98L1518.3,98L1518.3,98z M1390.4,124.8h7.8v-7.2h4v-3.4h4.4V72.8h-9v-9.9h110.1
		c-0.7,1.5-1.1,3.2-1.1,4.8v5.6c-0.7,0.3-1.4,0.6-2.1,1c-2.4,1.1-4.6,2.6-6.6,4.3v-5.9h-13.9v41.4h2.6v8.1l0,0
		c0,3.4,0.5,6.9,1.7,10.1h-98V124.8z M1427.6,117.6h5.1v-3.4h4.4V72.8h-13.9v41.4h4.4V117.6z M1458,117.6h5.1v-3.4h4.4V72.8h-13.9
		v41.4h4.4V117.6z M1438.1,43.6l22.7-17.4l22.8,17.4H1438.1z"/>
	<path d="M1561.8,70.5V27.9h6.8l14.2,28.4V27.9h6.6v42.5h-7l-14.1-27.7v27.7L1561.8,70.5L1561.8,70.5z"/>
	<path d="M1596.9,70.5V27.9h25.9v7.2h-18.8v9.4h17.5v7.1h-17.5v11.6h19.5v7.2H1596.9z"/>
	<path d="M1637.2,70.5V35.1h-10.4v-7.2h27.7v7.2h-10.3v35.4H1637.2z"/>
	<path d="M1561.8,87.4h13.9c3.8,0,6.5,0.4,8,1.1c1.7,0.8,3,2.1,4,3.7c2,3.5,2.1,7.9,0.3,11.5c-0.8,1.5-2,2.8-3.5,3.7
		c2,0.7,3.7,2,4.8,3.8c1.2,1.9,1.8,4.2,1.8,6.5c0.1,2.8-0.7,5.5-2.2,7.8c-1.2,1.9-3.1,3.3-5.3,4c-1.4,0.4-4.7,0.5-9.9,0.5h-11.8
		L1561.8,87.4z M1568.8,94.4v9.9h4.7c1.8,0.1,3.4,0,5.2-0.2c1.1-0.2,2.1-0.7,2.8-1.5c0.7-1,1.1-2.1,1.1-3.3c0.1-1.1-0.3-2.1-0.8-3.1
		c-0.4-0.7-1.1-1.2-2-1.5c-2.2-0.3-4.5-0.4-6.8-0.3H1568.8z M1568.8,111.3v11.3h6.5c1.8,0.1,3.7-0.1,5.5-0.4c0.9-0.4,1.6-1,2-1.8
		c0.6-1.1,0.9-2.2,0.8-3.3c0.1-1.2-0.3-2.4-0.9-3.4c-0.5-0.9-1.4-1.5-2.4-1.8c-1.9-0.4-4-0.6-6-0.5H1568.8z"/>
	<path d="M1628.3,129.8h-7.7l-3.1-9.6h-14l-2.9,9.6h-7.5l13.5-42.5h7.5L1628.3,129.8z M1615.4,113l-4.7-15.8l-4.7,15.8H1615.4z"/>
	<path d="M1632.1,129.8V87.4h6.9l14.2,28.3V87.4h6.6v42.5h-7.1l-14.1-27.7v27.7H1632.1z"/>
	<path d="M1667.2,129.8V87.4h7v18.9l14.2-18.9h9.5l-13.1,16.5l13.8,25.9h-9.1l-9.6-20l-5.7,7.1v12.8H1667.2z"/>
	<path d="M1702.1,129.8V87.4h7v42.5H1702.1z"/>
	<path d="M1716,129.8V87.4h6.9l14.2,28.3V87.4h6.5v42.5h-7l-14.1-27.7v27.7H1716z"/>
	<path d="M1767.2,114.3v-7.2h15.1v16.9c-1.8,2-4,3.6-6.5,4.7c-2.6,1.2-5.5,1.9-8.4,1.9c-3.3,0.1-6.4-0.9-9.1-2.6
		c-2.8-1.8-4.9-4.5-6.2-7.6c-1.6-3.8-2.4-7.8-2.3-11.9c-0.1-4.1,0.7-8.3,2.4-12.1c1.3-3,3.3-5.5,6.1-7.5c2.6-1.7,5.8-2.6,8.9-2.5
		c4.1,0,7.5,1.1,9.9,3.2c2.5,2.1,4.1,5.2,4.8,9.3l-6.9,1.6c-0.4-1.9-1.4-3.7-2.9-5c-1.4-1.1-3.2-1.8-5-1.8c-2.8-0.1-5.5,1.2-7.3,3.5
		c-1.8,2.4-2.8,5.9-2.8,10.6c0,5.1,1,9,3,11.7c1.6,2.3,4.2,3.5,7,3.4c1.5,0,2.9-0.4,4.3-1c1.5-0.6,2.8-1.5,4-2.6v-5.4L1767.2,114.3z
		"/>
</g>
<g>
	<path class="st11" d="M2239.7,115.4V88.1c0-6.7-2.6-10-8.8-10c-2.4,0-4.8,0.3-7.1,0.9v39.8c-0.1,1.3-1.1,2.5-2.6,2.6h-9.7
		c-1.3-0.1-2.5-1.1-2.6-2.6V72.2c0.1-1.5,1.1-2.9,2.6-3.3c6.2-2.2,12.8-3.3,19.3-3.3c15.1,0,23.6,7.9,23.6,22.6v31
		c-0.1,1.3-1.1,2.5-2.6,2.6h-5.9c-3.4,0.1-6.2-2.6-6.3-6.1L2239.7,115.4z M2277.4,99l-0.4,3.8c0,5,3.3,8,8.8,8c4.2,0,8-1.2,12.1-3.3
		c0.4,0,0.9-0.4,1.2-0.4c0.6,0,1.2,0.4,1.7,0.8c0.4,0.5,0.9,1.1,1.2,1.7c0.9,1.2,1.5,2.6,1.7,4.2c0,2.1-1.1,4-2.9,5
		c-4.9,2.6-10.4,3.9-15.9,3.8c-6.7,0-12.1-1.7-16.4-5c-4.3-3.8-6.8-9.3-6.7-15.1V86c0-13,8.4-20.9,22.7-20.9
		c13.8,0,21.8,7.6,21.8,20.9v10c-0.1,1.4-1.2,2.5-2.6,2.6h-26.4L2277.4,99z M2277.1,89.8h15.9v-4.2c0-5-2.9-8.4-8-8.4
		c-5.1,0-8,2.9-8,8.4L2277.1,89.8L2277.1,89.8z M2383.9,99l-0.4,3.8c0,5,3.3,8,8.8,8c4.2,0,8-1.2,12.1-3.3c0.4,0,0.8-0.4,1.2-0.4
		c0.6,0,1.3,0.4,1.7,0.8c0.4,0.5,0.9,1.1,1.2,1.7c0.9,1.2,1.5,2.6,1.7,4.2c0,2.1-1.1,4-2.9,5c-4.9,2.6-10.4,3.9-15.9,3.8
		c-6.7,0-12.1-1.7-16.4-5c-4.3-3.8-6.8-9.3-6.7-15.1V86c0-13,8.4-20.9,22.6-20.9c13.8,0,21.8,7.6,21.8,20.9v10
		c-0.1,1.3-1.1,2.5-2.6,2.6h-26.5L2383.9,99L2383.9,99z M2383.6,89.8h15.9v-4.2c0-5-2.9-8.4-8-8.4s-8,2.9-8,8.4L2383.6,89.8
		L2383.6,89.8z M2136.9,121.6h5.9c1.3-0.1,2.5-1.1,2.6-2.6v-31c0-14.2-7.6-22.6-20.1-22.6c-3.5,0-7.1,0.6-10.5,1.7V51.7
		c-0.1-3.4-2.8-6.2-6.2-6.3h-5.9c-1.3,0.1-2.5,1.1-2.6,2.6v71.3c0.1,1.3,1.1,2.5,2.6,2.6h9.7c1.3-0.1,2.5-1.1,2.6-2.6V79.7
		c2.3-0.8,4.7-1.2,7.1-1.2c6.2,0,8.8,2.9,8.8,10v27.3C2131.1,118.7,2133.6,121.6,2136.9,121.6L2136.9,121.6z M2200.3,86.4v15.5
		c0,13-8.8,20.9-23.5,20.9c-14.2,0-23.5-8-23.5-20.9V86.4c0-13,8.8-20.9,23.5-20.9C2191.5,65.5,2200.3,73.4,2200.3,86.4L2200.3,86.4
		z M2185.6,86.4c0-5-2.9-8.4-8.4-8.4c-5.5,0-8.4,2.9-8.4,8.4v15.5c0,5,2.9,8,8.4,8c5.5,0,8.4-2.9,8.4-8V86.4z M2092.1,79.3
		c0,13.5-10,22.6-23.5,22.6c-3.2,0.1-6.3-0.4-9.2-1.7v18.9c-0.1,1.3-1.1,2.5-2.6,2.6h-9.7c-1.3-0.1-2.5-1.1-2.6-2.6V52.5
		c0.1-1.5,1.1-2.9,2.6-3.3c6.2-2.2,12.7-3.3,19.3-3.3c15.1,0,25.6,9.2,25.6,23.5L2092.1,79.3L2092.1,79.3z M2077,68.4
		c0-6.7-4.6-10-10.9-10c-2.2,0-4.3,0.4-6.2,1.2v27.7c2,1.1,4.4,1.8,6.7,1.7c6.2,0,10.9-3.8,10.9-10V68.4H2077z M2363,79.3
		c0,13.5-10,22.6-23.5,22.6c-3.2,0.1-6.3-0.4-9.2-1.7v18.9c-0.1,1.3-1.1,2.5-2.6,2.6h-9.7c-1.3-0.1-2.5-1.1-2.6-2.6V52.5
		c0.1-1.5,1.1-2.9,2.6-3.3c6.2-2.2,12.8-3.3,19.3-3.3c15.1,0,25.6,9.2,25.6,23.5L2363,79.3L2363,79.3z M2347.9,68.4
		c0-6.7-4.6-10-10.9-10c-2.2,0-4.3,0.4-6.2,1.2v27.7c2,1.1,4.4,1.8,6.7,1.7c6.3,0,10.9-3.8,10.9-10V68.4H2347.9z"/>
	<circle class="st11" cx="1944" cy="76.6" r="69"/>
	<path class="st12" d="M1975.3,58.6c0-2.7-2.3-4.9-5-5h-9.2l-21.2-24.3c-2-2.3-5.2-3.2-8.1-2.3l-7.3,2.3c-0.9,0.3-1.3,1.2-1.1,2.1
		l0,0c0.1,0.2,0.2,0.4,0.3,0.5l23.1,22h-35.1c-1-0.1-1.8,0.6-1.9,1.6l0,0c0,0.1,0,0.2,0,0.3v3.9c0.1,2.7,2.3,4.9,5,5h5.4v18.6
		c0,13.9,7.3,22,19.7,22c3.7,0.1,7.4-0.5,10.8-1.9v12.3c-0.1,3.3,2.6,6.2,6,6.2l0,0h5.5c1.2-0.1,2.2-1.1,2.3-2.3V64.4h8.9
		c1,0.1,1.8-0.6,1.9-1.6l0,0c0-0.1,0-0.2,0-0.3L1975.3,58.6z M1950.7,91.7c-2.5,1.1-5,1.6-7.7,1.6c-6.2,0-9.2-3.1-9.2-10V64.8h16.9
		L1950.7,91.7z"/>
</g>
<g>
	<path class="st13" d="M2966,48.9c-4-11.5-15-19.2-27.1-19.2h-0.3c-7.8,0-15.3,3.2-20.7,8.8c-5.4-5.6-12.9-8.8-20.7-8.8h-0.3
		c-6.9,0-13.5,2.5-18.7,6.9v-2.2c-0.2-2.2-2-4-4.2-4h-19.2c-2.4,0-4.2,1.8-4.2,4.2l0,0V139c0,2.4,1.9,4.2,4.2,4.2l0,0h19.2
		c2.1,0,3.9-1.6,4.2-3.7V64.8c0-0.3,0-0.5,0-0.8c0.3-3.5,3.1-6.2,6.6-6.4h3.5c1.5,0.1,2.9,0.6,4,1.6c1.7,1.3,2.6,3.4,2.6,5.6
		l0.1,74.5c0,2.4,1.9,4.2,4.2,4.3l0,0h19.2c2.3,0,4-1.8,4.2-4V64.7c-0.1-2.4,1.1-4.7,3.2-6c1.1-0.7,2.3-1.1,3.5-1.1h3.5
		c3.8,0.2,6.8,3.3,6.7,7.2l0.1,74.4c0,2.4,1.9,4.2,4.2,4.2l0,0h19.4c2.4,0,4.2-1.9,4.2-4.2v-80C2967.5,53.6,2966.9,51.3,2966,48.9
		L2966,48.9z M2835.9,30.8h-11V12.9c0-2.1-1.8-3.9-3.9-3.9l0,0c-0.3,0-0.5,0-0.7,0.1c-12.2,3.3-9.8,20.2-32,21.6h-2.1
		c-0.4,0-0.6,0-1,0.1l0,0c-1.9,0.4-3.3,2.1-3.3,4.1v19.3c0,2.4,1.9,4.2,4.2,4.2h11.6v81.5c0,2.3,1.8,4.2,4.2,4.2h19
		c2.3,0,4.2-1.8,4.2-4.2V58.5h10.7c2.4,0,4.2-1.9,4.2-4.2V35.1C2840.1,32.7,2838.3,30.8,2835.9,30.8"/>
	<path class="st14" d="M2766.7,30.8h-19.2c-2.4,0-4.2,1.9-4.2,4.2l0,0v39.8c-0.1,2.5-2,4.4-4.5,4.4h-8c-2.5,0-4.5-2-4.5-4.5l0,0
		l-0.2-39.7c0-2.4-1.9-4.2-4.2-4.2h-19.2c-2.4,0-4.2,1.8-4.2,4.2l0,0v43.5c0,16.5,11.8,28.3,28.3,28.3c0,0,12.4,0,12.8,0.1
		c2.5,0.3,4.2,2.5,4,4.9c-0.2,2.1-1.8,3.8-4,4l-0.4,0.1l-28.1,0.1c-2.4,0-4.2,1.9-4.2,4.2l0,0v19.2c0,2.4,1.8,4.2,4.2,4.2l0,0h31.4
		c16.5,0,28.3-11.8,28.3-28.3V35.1C2771,32.7,2769.1,30.8,2766.7,30.8L2766.7,30.8L2766.7,30.8z M2580.8,65.9v11.9
		c0,2.5-2,4.5-4.5,4.5h-12.2V58.6h12.2c2.5,0,4.5,2,4.5,4.5l0,0V65.9z M2582.5,30.8h-42c-2.3,0-4.1,1.8-4.1,4.1v18.8v0.1
		c0,0,0,0.2,0,0.3v85.2c-0.1,2.2,1.7,4.1,3.9,4.2h19.5c2.4,0,4.2-1.9,4.2-4.2l0,0l0.1-29.2h18.4c15.4,0,26.1-10.6,26.1-26.1V57
		C2608.6,41.5,2597.9,30.8,2582.5,30.8L2582.5,30.8z M2660.5,111.2v3c0,0.3,0,0.4-0.1,0.7c-0.1,0.2-0.1,0.4-0.2,0.6
		c-0.7,1.8-2.4,2.9-4.3,2.9h-8c-2.4,0.1-4.4-1.8-4.5-4.2v-3.6c0,0,0-0.1,0-0.2V97.7c0.1-2.4,2.1-4.3,4.5-4.2h8
		c2.4-0.1,4.4,1.8,4.5,4.2L2660.5,111.2z M2657.4,30.9h-26.7c-2.3-0.1-4.2,1.7-4.2,4v7.5c0,0,0,0.1,0,0.2s0,0.1,0,0.2v10.2
		c0.1,2.4,2.1,4.3,4.5,4.2h25.4c2.1,0.3,3.7,1.9,3.9,4v2.5c-0.2,2-1.7,3.7-3.7,4H2644c-16.7,0-28.7,11.1-28.7,26.7v22.3
		c0,15.5,10.2,26.6,26.8,26.6h34.8c6.2,0,11.3-4.7,11.3-10.6v-73C2688.4,42,2679.2,30.9,2657.4,30.9L2657.4,30.9z"/>
</g>
<g>
	<g transform="translate(0.000000,511.000000) scale(0.100000,-0.100000)">
		<path d="M30985.7,5009.8c-13.8-8.1-34-27.6-44.6-43l-19.4-26.7l-2.5-580c-2.5-648.2-4-628,53.6-671.7l28.4-21.9l1597.3-2.5
			c1765.3-1.6,1630.6-6.5,1674.4,51.9l23.6,30v598.7c0,594.6,0,598.7-17.1,621.4c-9,12.1-29.2,30.8-43.8,41.3l-26.7,17.9h-1599
			C31053.9,5025.2,31010.1,5024.4,30985.7,5009.8z M34225.9,4984.7c52.8-32.5,51.1-13,48.6-651.4c-2.5-558.1-3.3-578.4-18.6-601.1
			c-32.5-48.6,71.4-45.5-1647.7-45.5c-1777.4,0-1621.7-5.7-1651.7,61.7c-14.6,33.2-14.6,60.9-12.9,609.3
			c2.5,548.4,3.3,575.2,17.9,597.1c33.2,48.6-86,45.4,1647.6,46.3C34190.2,5000.9,34199.1,5000.9,34225.9,4984.7z"/>
		<path d="M32197,4729.2c-64.9-22.7-97.4-72.2-98.2-146.8c0-105.5,82.8-160.6,205.2-136.3c23.5,4.8,25.2,7.3,25.2,43.8v38.1
			l-30.8-8.1c-60.9-16.3-107.1,12.1-107.1,66.5c0,46.3,28.4,77.1,69.8,77.1c17.9,0.8,39.8-2.5,50.3-5.7c17.1-6.5,17.9-4.8,17.9,33.2
			s-0.8,40.6-25.2,45.5C32265.1,4743.8,32231,4742.2,32197,4729.2z"/>
		<path d="M32726.7,4723.5c-48.6-25.2-66.5-66.5-45.5-108.7c10.6-22.7,24.4-34,66.5-52.8c39-17.9,51.9-27.6,50.3-38.1
			c-3.3-18.6-45.5-21.9-83.6-6.5c-17.1,7.3-31.7,13-33.2,13s-3.3-16.3-3.3-36.5c0-32.5,2.5-38.1,21.1-44.6
			c30-11.3,104.7-9.8,136.3,3.3c34,13.8,61.7,49.5,61.7,78.7c0,31.7-34,68.2-85.1,91.7c-25.9,11.3-44.6,25.2-44.6,32.5
			c0,17.9,36.5,25.2,73,13.8c41.3-12.1,40.6-13,40.6,26.7c0,34.1-0.8,35.7-30,40.6C32795.6,4745.3,32763.2,4741.3,32726.7,4723.5z"
			/>
		<path d="M33452.8,4725.9c-39-17.9-55.9-35.7-73-76.3c-41.3-99.8,26.7-208.5,130.6-208.5c64.1,0,107.1,27.6,133.9,85.1
			c37.3,80.3-1.6,179.3-81.2,206.1C33524.1,4745.3,33490.1,4743,33452.8,4725.9z M33551.7,4644.8c17.1-21.9,12.9-95.7-5.7-114.3
			c-46.3-46.3-105.5,20.2-81.1,92.4C33479.5,4667.5,33525.8,4678.8,33551.7,4644.8z"/>
		<path d="M31308.6,4696.7l-25.9-36.5h71.3c124.9,0,221.5-29.2,245-73c8.1-16.3,5.7-16.3-128.2-16.3h-136.3l-25.9-36.5
			c-14.6-20.2-25.9-39-25.9-40.6c0-2.5,77.1-4,170.4-4c112.8,0,170.4-3.3,170.4-8.1c0-21.9-34-72.2-62.5-90.9
			c-47.1-31.6-88.4-42.1-170.3-42.1l-75.5-0.8v-40.6v-40.6l167.1-180.1l166.3-180.9h60.1c33.2,0,61.7,3.3,64.1,6.5
			c2.5,4-68.2,89.3-156.6,189c-89.3,99.7-160.6,182.5-159,184.1c0.8,0.8,25.2,5.7,53.6,10.6c105.5,17.1,185.8,71.4,219,149.3
			l19.4,43.8l51.9,2.5c52.8,2.5,52.8,2.5,80.3,41.3l27.5,38.1h-82h-81.1l-18.6,39c-9.8,21.1-19.4,40.6-21.1,44.6
			c-1.6,3.3,31.7,5.7,73.8,5.7h77.1l19.4,26.7c10.6,13.8,22.7,30.8,25.9,36.5c4.8,7.3-53.6,9.8-280.7,9.8h-287.2L31308.6,4696.7z"/>
		<path d="M32400.6,4597.7c-25.9-75.5-47.1-141.2-47.1-146.8c0-6.5,14.6-9.8,44.6-9.8c43,0,44.6,0.8,51.1,26.7
			c6.5,25.2,8.1,25.9,50.3,25.9s43.8-0.8,50.3-25.9c6.5-25.9,8.1-26.7,51.1-26.7c30.8,0,44.6,3.3,44.6,10.6
			c0,4.8-19.4,69.8-43.8,143.6l-43,133.9l-55.9,2.5l-55.9,2.5L32400.6,4597.7z M32510.1,4628.5c2.5-13,7.3-32.5,10.6-44.6
			c4.8-19.4,3.3-21.1-21.1-21.1s-25.9,1.6-21.1,21.1c3.3,12.1,8.1,31.7,10.6,44.6C32494.7,4658.6,32504.4,4658.6,32510.1,4628.5z"/>
		<path d="M32937.6,4586.4v-146l43,2.5l42.2,2.5l2.5,55.2l2.5,54.4h47.9h48.6v-57.6v-56.8l42.9,2.5l42.2,2.5l2.5,144.4l1.6,143.6
			h-44.6h-44.6v-52.8v-52.8h-48.6h-48.6v52.8v52.8h-44.6h-44.7L32937.6,4586.4L32937.6,4586.4L32937.6,4586.4z"/>
		<path d="M33700.2,4586.4v-146l39,2.5l38.1,2.5l4,81.1l4,81.1l59.2-83.6l60.1-82.8h35.7h35.7v146v146h-40.6h-39.8l-2.5-73l-2.5-73
			l-52.8,73l-52.8,73h-42.1h-43L33700.2,4586.4L33700.2,4586.4z"/>
		<path d="M32110.1,4072v-142h83.6c105.5,0,145.2,17.1,174.4,73c24.4,47.1,21.1,123.3-6.5,162.3c-27.5,39-60.1,48.6-162.3,48.6
			h-89.3L32110.1,4072L32110.1,4072z M32265.9,4132.9c52.8-41.3,21.9-137.9-43.8-137.9h-22.7v77.1v77.1h23.5
			C32235,4149.1,32255.4,4141.8,32265.9,4132.9z"/>
		<path d="M32426.5,4072v-142h93.2h93.2v32.5v32.5h-48.6c-46.3,0-48.6,0.8-48.6,19.4s3.3,20.2,43,22.7l42.2,2.5l2.5,34.9l2.5,34
			h-44.6c-43,0-45.5,0.8-45.5,20.2c0,19.4,2.5,20.2,44.6,20.2h44.6v32.5v32.5h-89.3h-89.3L32426.5,4072L32426.5,4072z"/>
		<path d="M32653.6,4072v-142h93.2h93.3v32.5v32.5h-48.6h-48.6v109.5V4214h-44.6h-44.6L32653.6,4072L32653.6,4072z"/>
		<path d="M32880.9,4072v-142h44.6h44.6v142v142h-44.6h-44.6V4072z"/>
		<path d="M33002.5,4208.3c0-3.3,20.2-66.5,43.8-140.3l43.8-133.9h51.1h50.3l43.8,129.7c23.5,71.4,43,133.9,43,139.5
			c0,7.3-13.8,10.6-43,10.6h-43l-24.4-99l-24.4-99.7l-24.4,97.4l-24.4,97.4l-46.3,2.5C33023.6,4214,33002.5,4211.6,33002.5,4208.3z"
			/>
		<path d="M33318.9,4072v-142h93.2h93.3v32.5v32.5h-52.8c-51.1,0-52.8,0.8-52.8,20.2c0,19.4,2.5,20.2,44.6,20.2h44.6v36.5v36.5
			h-44.6c-42.2,0-44.6,0.8-44.6,20.2s2.5,20.2,48.6,20.2h48.6v32.5v32.5h-89.2h-89.1V4072z"/>
		<path d="M33546,4072v-142h44.6h44.6v48.6c0,37.3,2.5,48.6,11.3,48.6c6.5,0,23.5-21.9,38.1-48.6l25.9-48.6h47.1
			c26.7,0,47.9,2.5,47.9,4.8c0,12.1-73.8,116.8-82.8,116.8c-5.7,0.8-0.8,5.7,11.3,12.9c53.6,28.4,60,103.9,12.1,133.1
			c-21.1,13.8-41.3,16.3-112.8,16.3h-87.6v-142L33546,4072L33546,4072z M33671,4152.4c27.5-10.6,9.8-60.1-21.1-60.1
			c-11.3,0-14.6,6.5-14.6,32.5C33635.3,4158,33642.6,4162.9,33671,4152.4z"/>
		<path d="M33851.1,4120.7c38.1-81.1,43.8-99.7,43.8-142v-48.6h44.6h44.6v52.8c0,47.9,4,61.7,44.6,142l44.6,89.3h-47.9h-47.8
			l-14.6-51.9c-8.1-29.2-17.1-51.1-19.4-49.5c-3.3,1.6-12.1,25.2-20.2,52.8l-14.6,48.6h-51.1h-51.1L33851.1,4120.7z"/>
	</g>
</g>
<g id="layer1_00000139293804611022115440000002761097593060766637_" transform="translate(24.740585,-326.91711)">
	<path id="path5470" class="st15" d="M3623,370.1l13.6-13.6l-3-3c-23.8-23.8-62.7-23.8-86.6,0c-22.9,22.9-23.8,59.5-2.8,83.5
		l-13.6,13.6l3,3c23.8,23.8,62.7,23.8,86.6,0C3643.1,430.8,3644,394.1,3623,370.1 M3553,359.4c19.6-19.6,50.9-20.6,71.7-2.8
		l-7.7,7.7c-16.5-13.5-40.9-12.6-56.3,2.8s-16.4,39.8-2.8,56.3l-7.7,7.7C3532.5,410.4,3533.4,379,3553,359.4 M3614.3,447.7
		c-19.6,19.6-50.9,20.6-71.7,2.8l7.7-7.7c16.5,13.5,40.9,12.6,56.3-2.8s16.4-39.8,2.8-56.3l7.7-7.7
		C3634.8,396.8,3633.9,428.1,3614.3,447.7 M3757.6,384.9h12.4v9.5c6.3-12.7,27.3-15.5,31.9-0.1h0.2c4.3-8.4,14.9-12.6,23.8-9.9
		c8.3,2.6,10.7,11,10.7,18.8v33.2h-12.8v-30.9c0-5.4-1.4-10.7-7.9-10.3c-6.3,0.4-10.4,6-11.7,11.7c-0.5,2-0.6,4.2-0.6,6.7v22.7
		h-12.8v-30.9c0-5.7-1.7-11.1-8.5-10.3c-6.1,0.8-9.9,6.2-11.2,11.8c-0.5,1.9-0.6,4.2-0.6,6.6v22.7h-12.8V384.9L3757.6,384.9z
		 M3929.3,425.7c-3.3,0-5.3-1.4-5.3-7.1v-53.9l-12.8,12.8v43.1c0,14.8,8.8,16.6,15.9,16.6c2.1,0,4-0.3,4-0.3v-11.3
		C3931.2,425.6,3930.3,425.7,3929.3,425.7 M3896.1,393.9c-4.5-7.4-12.8-11-21.3-10.1c-5.5,0.6-11.3,3.4-14,8.4v-7.3h-11.8V461
		l12.8-12.9v-17.4c4.3,6.3,12.8,8.1,20,6.6C3900.5,433.2,3905.1,408.4,3896.1,393.9 M3874.5,427c-7.9,0-12.3-7.2-12.8-14.4
		c-0.4-6,1.2-13.1,6.9-16.3c4.7-2.6,10.8-1.8,14.5,1.9C3891.2,406.6,3888.3,427,3874.5,427 M3732.2,384.9h12.8v51.7h-12.8V384.9z
		 M3722.8,412.4c-2-9.1-10.6-13.4-18.3-16.6c-5.1-2.2-15.4-4.8-15-12.1c0.3-7.1,8.6-9,14.3-8c3.2,0.5,6.4,1.8,9.2,3.6l8.5-8.5
		c-7.7-7.4-21.2-9.3-31-5.8c-10.6,3.8-17.8,15.6-12.9,26.5c3.6,8,12.7,11.3,20.2,14.7c5.7,2.5,15.8,6.9,11.3,15
		c-3.3,5.8-11.6,5.1-16.9,3.3c-3.1-1.1-5.9-2.6-8.4-4.6l-8.6,8.6c7.5,7.6,19.9,10.8,30.2,8.9
		C3717.1,435.1,3725.6,424.4,3722.8,412.4"/>
</g>
<g id="Layer_1-2">
	<path class="st16" d="M4224.2,58.5l-4.5,8.5c-4.9-2.7-9.5-4.1-12.9-4.1c-2.4,0-4,0.9-4,2.8c0,5.6,21.6,2.9,21.5,17.2
		c0,8.5-7.4,13.1-17.2,13.1c-6.8,0-13.4-2-18.4-5.8l4.2-8.4c4.6,3.3,10,5.1,14.5,5.1c2.6,0,4.5-0.9,4.5-2.8c0-6-21.2-2.9-21.1-17.3
		c0-8.5,7.1-13,16.6-13C4213.2,53.9,4219.1,55.5,4224.2,58.5L4224.2,58.5z"/>
	<path class="st16" d="M4270.3,69.6v25.9h-13.1V73.3c0-4.8-2.8-7.8-7.2-7.8c-4.8,0-7.8,3.4-8.4,8.3v21.7h-13.1V54.5h13.1v6.7
		c2.9-4.8,7.6-7.2,13.7-7.3C4264.4,53.9,4270.3,60,4270.3,69.6L4270.3,69.6z"/>
	<path class="st16" d="M4300,81.6v-3.7h-8.3c-4,0-5.9,1.4-5.9,4.4c0,3,2.1,4.9,5.8,4.9C4295.7,87.2,4299.2,85,4300,81.6L4300,81.6
		L4300,81.6z M4312.9,68.7v26.8h-12.8v-4.7c-2.7,3.5-7,5.3-12.5,5.3c-8.7,0-14.1-5.3-14.1-12.9c0-7.5,5.5-12.3,15.7-12.4h10.8v-0.6
		c0-4-2.7-6.5-8-6.5c-3.4,0-7.9,1.2-12.2,3.4l-3.7-8.7c6.4-3,12.2-4.6,19-4.6C4306.3,53.9,4312.8,59.4,4312.9,68.7"/>
	<path class="st16" d="M4351,74.8c0-6.2-3.7-10.7-9.2-10.7s-9,4.4-9,10.7c0,6.2,3.7,10.7,9,10.7S4351,81.1,4351,74.8z M4364.2,75.2
		c0,12.5-7.4,20.8-18.9,20.8c-5.3,0-9.6-2.1-12.5-5.9v20.3h-13.1V54.5h13.1v5.4c2.9-3.7,7.1-5.9,12.2-5.9
		C4356.5,54,4364.2,62.5,4364.2,75.2"/>
	<path class="st16" d="M4436.4,70.8v24.8h-5.9V72.4c0-7.2-4.2-11.4-11.1-11.4c-8.3,0.2-13.1,6.2-13.1,14.8v19.7h-6V72.4
		c0-7.2-4.1-11.4-11.1-11.4c-8.2,0.2-13.1,6.2-13.1,14.8v19.7h-5.9V55.4h5.9v9.1c2.7-6.2,8.1-9.2,15.3-9.3c7.5,0,12.7,3.9,14.4,10.5
		c2.5-7.1,8.1-10.4,15.8-10.5C4430.8,55.2,4436.4,61.1,4436.4,70.8L4436.4,70.8z"/>
	<path class="st16" d="M4446.5,55.4h5.9v40.2h-5.9V55.4z M4453.2,43.9c0,2.4-1.7,4.1-3.9,4.1c-2.2,0-3.9-1.8-3.9-4.1
		s1.7-4.1,3.9-4.1S4453.2,41.5,4453.2,43.9z"/>
	<path class="st16" d="M4500.4,70.8v24.8h-5.9V72.4c0-7.1-4.3-11.3-11.3-11.3c-7.9,0.1-12.8,5.3-13.4,12.9v21.6h-5.9V55.4h5.9v8.8
		c2.8-6.1,8.2-9,15.5-9.1C4494.7,55.2,4500.4,61.1,4500.4,70.8L4500.4,70.8z"/>
	<path class="st16" d="M4531.2,92.8c-2.8,1.9-5.8,3-9,3.1c-5.9,0-10.2-3.5-10.2-11.4V61.5h-5.8v-4.8h5.8V46.1h5.8v10.6l12.7-0.1v4.9
		h-12.7v21.9c0,4.9,1.9,6.7,5.3,6.7c2.1,0,4.2-0.7,6.4-2.1L4531.2,92.8L4531.2,92.8z"/>
	<path class="st17" d="M4094.2,56.1c-4.2-11.7,0.1-21.2,3.2-25.9c4.2-6.4,10.8-10.5,16-12c0,7.9,0,21,0,24.9
		C4110.2,44.1,4100.6,47.5,4094.2,56.1L4094.2,56.1z M4115,10.8c-7.9,2.6-15.6,8.3-21.6,15.9c-7.6,9.3-12,20.5-12.5,32.6l0,0.2
		c0,0.6,0,1.3,0,1.9l0,0.5c0,0.6,0,1.2,0,1.9l0,0.2c0.8,22.7,15.8,42.8,37.2,50.2l1.9,0.7V75.4l-1.3-0.1c-2.1-0.2-4.3-0.7-6.3-1.4
		c-6.3-2.1-11.7-6.4-15.3-12c3.6-5.6,9.1-9.9,15.4-12c2-0.7,4.1-1.1,6.2-1.4l1.3-0.1V9l-1.9,0.7C4117,10,4116,10.4,4115,10.8"/>
	<path class="st17" d="M4134.7,134.9c0-7.9,0-21,0-24.9c3.3-1,12.9-4.4,19.2-13c4.2,11.7-0.1,21.2-3.2,25.9
		C4146.6,129.3,4140,133.4,4134.7,134.9L4134.7,134.9z M4167.3,89.4l0-0.2c-0.8-22.7-15.8-42.8-37.2-50.2l-1.9-0.7v39.4l1.3,0.1
		c2.1,0.2,4.3,0.7,6.3,1.4c6.3,2.1,11.7,6.4,15.3,12c-3.6,5.6-9.1,9.9-15.4,12c-2,0.7-4.1,1.1-6.2,1.4l-1.3,0.1v39.4l1.9-0.7
		c1-0.4,2.1-0.8,3-1.1c7.9-2.6,15.6-8.3,21.6-15.9c7.6-9.3,12-20.5,12.6-32.6v-0.2c0-0.6,0-1.3,0.1-2l0-0.4
		C4167.4,90.6,4167.3,90,4167.3,89.4L4167.3,89.4z"/>
</g>
</svg>
